<svg width="80" height="80" viewBox="0 0 80 80" fill="none" xmlns="http://www.w3.org/2000/svg">
<path d="M0 0V80H51.7647V15.496L36.2687 0L0 0ZM37.6471 8.03341L43.7313 14.1176H37.6471V8.03341ZM4.70588 75.2941V4.70588H32.9412V18.8235H47.0588V75.2941H4.70588Z" fill="black"/>
<path d="M72.9412 9.41177H70.5882V0H56.4706V66.4637L63.5294 79.8755L70.5882 66.4637V14.1177H72.9412C74.2388 14.1177 75.2941 15.1732 75.2941 16.4706V32.9412H80V16.4706C80 12.5784 76.8336 9.41177 72.9412 9.41177ZM65.8824 4.70588V9.41177H61.1765V4.70588H65.8824ZM61.1765 51.7647H65.8824V56.1569H61.1765V51.7647ZM63.5294 69.7716L61.1765 65.301V60.8628H65.8824V65.301L63.5294 69.7716ZM65.8824 47.0588H61.1765V14.1177H65.8824V47.0588Z" fill="black"/>
<path d="M9.41176 28.2353H30.5882V32.9412H9.41176V28.2353Z" fill="black"/>
<path d="M9.41176 18.8235H23.5294V23.5294H9.41176V18.8235Z" fill="black"/>
<path d="M9.41176 37.6471H42.3529V42.353H9.41176V37.6471Z" fill="black"/>
<path d="M9.41176 47.0588H42.3529V51.7647H9.41176V47.0588Z" fill="black"/>
<path d="M9.41176 70.5882H42.3529V56.4706H9.41176V70.5882ZM14.1176 61.1765H37.6471V65.8823H14.1176V61.1765Z" fill="black"/>
</svg>
