<svg width="86" height="86" viewBox="0 0 86 86" fill="none" xmlns="http://www.w3.org/2000/svg">
<path fill-rule="evenodd" clip-rule="evenodd" d="M74.7897 80.0983C75.3341 79.1112 75.7054 78.0177 75.8677 76.8576L85.0188 76.8586L85.0198 64.886C85.0198 62.3315 84.0259 59.9303 82.2199 58.1243C80.4139 56.3183 78.0128 55.3234 75.4592 55.3234H73.2515L65.8946 40.0145L26.9043 40.0105L17.3818 55.3176L10.5428 55.3166C10.5419 55.3166 10.5419 55.3166 10.5409 55.3166C7.98727 55.3166 5.58611 56.3115 3.78011 58.1165C1.97411 59.9215 0.97925 62.3227 0.978272 64.8773L0.977295 76.8488L10.8321 76.8498C10.9904 77.9971 11.3559 79.0936 11.9091 80.0973H0.980227V85.0228H85.0228V80.0983H74.7897ZM43 11.6501C44.6526 11.6501 45.9915 12.989 45.9915 14.6415C45.9915 16.2941 44.6526 17.633 43 17.633C41.3475 17.633 40.0086 16.2941 40.0086 14.6415C40.0086 12.9899 41.3475 11.6501 43 11.6501ZM43 0.977295C45.4833 0.977295 47.9313 1.61448 50.0892 2.84486C54.7019 5.47275 57.1802 10.2399 57.1802 15.4937C57.1802 23.2728 48.9262 31.2317 43.4847 35.8767L43 36.291L42.5153 35.8767C37.0738 31.2317 28.8198 23.2728 28.8198 15.4937C28.8198 10.2399 31.2982 5.47275 35.9109 2.84486C38.0687 1.61448 40.5168 0.977295 43 0.977295ZM43 29.8254C46.5954 26.4802 52.3281 20.4622 52.3281 15.4937C52.3281 10.0904 48.4796 5.82945 43 5.82945C37.5205 5.82945 33.672 10.0904 33.672 15.4937C33.672 20.4612 39.4056 26.4802 43 29.8254ZM48.8705 44.937L62.7966 44.9389L67.7876 55.3225L48.8695 55.3205L48.8705 44.937ZM29.6397 44.935L43.946 44.937L43.945 55.3205L23.1809 55.3185L29.6397 44.935ZM20.213 80.0846C20.213 80.0846 20.212 80.0846 20.213 80.0846C18.9982 80.0846 17.8558 79.6116 16.9967 78.7526C16.1377 77.8935 15.6647 76.7511 15.6647 75.5364C15.6647 74.3216 16.1387 73.1802 16.9967 72.3211C17.8558 71.4621 18.9972 70.9891 20.212 70.9891C21.4267 70.9891 22.5692 71.4621 23.4272 72.3211C24.2862 73.1802 24.7592 74.3226 24.7592 75.5364C24.7602 78.044 22.7197 80.0846 20.213 80.0846ZM28.51 80.0983C29.0553 79.1103 29.4286 78.0147 29.5909 76.8528L57.1099 76.8557C57.2721 78.0167 57.6435 79.1112 58.1878 80.0983H28.51ZM66.4888 80.0885C65.273 80.0885 64.1316 79.6155 63.2726 78.7565C62.4136 77.8975 61.9405 76.755 61.9415 75.5412C61.9415 73.0336 63.9821 70.994 66.4888 70.994C66.4888 70.994 66.4888 70.994 66.4898 70.994C68.9974 70.995 71.037 73.0346 71.037 75.5422C71.036 78.0489 68.9965 80.0885 66.4888 80.0885ZM66.4898 66.0695C66.4888 66.0695 66.4898 66.0695 66.4888 66.0695C62.5445 66.0695 59.1563 68.4941 57.7344 71.9312L28.9762 71.9273C28.5061 70.7858 27.8103 69.7382 26.9112 68.8391C25.1228 67.0497 22.7441 66.0646 20.2139 66.0637H20.213C17.6838 66.0637 15.3051 67.0488 13.5167 68.8372C12.6176 69.7363 11.9218 70.7839 11.4517 71.9253L5.90373 71.9244L5.9047 64.8763C5.9047 63.6371 6.38748 62.4732 7.26311 61.5965C8.13875 60.7209 9.30366 60.2381 10.5419 60.2381L75.4582 60.246C76.6974 60.246 77.8613 60.7287 78.7379 61.6044C79.6135 62.48 80.0963 63.6449 80.0963 64.8841L80.0953 71.9322L75.2461 71.9312C73.8232 68.4961 70.435 66.0705 66.4898 66.0695Z" fill="#07A7EB"/>
</svg>
