<svg width="86" height="86" viewBox="0 0 86 86" fill="none" xmlns="http://www.w3.org/2000/svg">
<g clip-path="url(#clip0)">
<path d="M7.56041 50.5604V45.5216C3.39281 45.5216 0.00219727 48.9122 0.00219727 53.0798C0.00219727 57.2474 3.39281 60.638 7.56041 60.638H10.0798V86H75.9202V60.638H78.4396C82.6072 60.638 85.9978 57.2474 85.9978 53.0798C85.9978 48.9122 82.6072 45.5216 78.4396 45.5216V50.5604C79.8288 50.5604 80.959 51.6906 80.959 53.0798C80.959 54.1586 80.2761 55.0785 79.3209 55.437L69.4055 45.5216H65.8426V40.4828H68.362C72.5296 40.4828 75.9202 37.0922 75.9202 32.9246C75.9202 28.757 72.5296 25.3664 68.362 25.3664V30.4052C69.7512 30.4052 70.8814 31.5354 70.8814 32.9246C70.8814 34.0034 70.1985 34.9233 69.2433 35.2817L59.3279 25.3664H55.765V20.3276H58.2844C62.452 20.3276 65.8426 16.9369 65.8426 12.7693C65.8426 8.60175 62.452 5.21113 58.2844 5.21113V10.2499C59.6736 10.2499 60.8038 11.3801 60.8038 12.7693C60.8038 14.1585 59.6736 15.2887 58.2844 15.2887H58.2706L43 0L27.7294 15.2887H27.7156C26.3264 15.2887 25.1962 14.1585 25.1962 12.7693C25.1962 11.3801 26.3264 10.2499 27.7156 10.2499V5.21113C23.548 5.21113 20.1574 8.60175 20.1574 12.7693C20.1574 16.9369 23.548 20.3276 27.7156 20.3276H30.235V25.3664H26.6721L16.7567 35.2817C15.8015 34.9233 15.1186 34.0034 15.1186 32.9246C15.1186 31.5354 16.2488 30.4052 17.638 30.4052V25.3664C13.4704 25.3664 10.0798 28.757 10.0798 32.9246C10.0798 37.0922 13.4704 40.4828 17.638 40.4828H20.1574V45.5216H16.5945L6.67912 55.437C5.72393 55.0785 5.041 54.1586 5.041 53.0798C5.041 51.6906 6.17121 50.5604 7.56041 50.5604ZM20.1574 60.638V70.8836H15.1186V60.638H20.1574ZM50.5582 70.8836V65.6768H35.4418V70.8836H25.1962V60.638H60.8038V70.8836H50.5582ZM45.5194 80.9612H40.4806V70.7156H45.5194V80.9612ZM15.1186 75.9224H35.4418V80.9612H15.1186V75.9224ZM50.5582 80.9612V75.9224H70.8814V80.9612H50.5582ZM70.8814 70.8836H65.8426V60.638H70.8814V70.8836ZM43 7.13025L51.1489 15.2887H34.8511L43 7.13025ZM35.2738 20.3276H50.7262V25.3664H35.2738V20.3276ZM28.7592 30.4052H57.2409L62.2797 35.444H23.7204L28.7592 30.4052ZM25.1962 40.4828H60.8038V45.5216H25.1962V40.4828ZM18.6816 50.5604H67.3185L72.3573 55.5992H13.6428L18.6816 50.5604Z" fill="black"/>
</g>
<defs>
<clipPath id="clip0">
<rect width="86" height="86" fill="white"/>
</clipPath>
</defs>
</svg>
