<svg width="86" height="86" viewBox="0 0 86 86" fill="none" xmlns="http://www.w3.org/2000/svg">
<path d="M8.74293 68.7856C9.45996 69.121 10.1332 69.437 10.9183 69.6825C7.146 65.6549 4.99247 60.3197 4.99247 54.6588V32.963H12.768V17.39H33.2412V32.963H41.0168V49.7392H54.8762V36.1398H51.2667V31.2178H82.3715V36.1398H78.762V67.879C80.2325 67.3369 82.0555 66.914 84.7 66.914V71.836C81.7492 71.836 80.3565 72.4899 78.745 73.2433C76.8734 74.1208 74.749 75.1174 70.6996 75.1174C66.6526 75.1174 64.5282 74.1208 62.6542 73.2433C61.0427 72.4899 59.65 71.836 56.6992 71.836C53.746 71.836 52.3557 72.4899 50.7417 73.2433C48.8701 74.1208 46.7458 75.1174 42.6988 75.1174C38.6518 75.1174 36.5274 74.1208 34.6558 73.2433C33.0443 72.4899 31.6516 71.836 28.6984 71.836C25.7476 71.836 24.3548 72.4899 22.7433 73.2433C20.8718 74.1208 18.7474 75.1174 14.7004 75.1174C10.651 75.1174 8.5266 74.1208 6.65501 73.2433C5.04351 72.4899 3.65076 71.836 0.697548 71.836V66.914C4.74697 66.914 6.86891 67.9081 8.74293 68.7856ZM39.7601 9.5172L54.6137 1.44995V7.07199H84.7V11.9624L54.6137 11.96V17.582L39.7601 9.5172ZM69.3627 45.1915H64.4383V40.2695H69.3627V45.1915ZM20.5096 57.6582H15.5851V52.7362H20.5096V57.6582ZM14.7004 80.5304C17.6512 80.5304 19.0439 79.8765 20.6554 79.123C22.5294 78.2456 24.6514 77.249 28.7008 77.249C32.7502 77.249 34.8722 78.2456 36.7462 79.123C38.3577 79.8765 39.7504 80.5304 42.7012 80.5304C45.6544 80.5304 47.0447 79.8765 48.6587 79.123C50.5303 78.2456 52.6546 77.249 56.7016 77.249C60.7486 77.249 62.873 78.2456 64.747 79.123C66.3585 79.8765 67.7512 80.5304 70.702 80.5304C73.6528 80.5304 75.0455 79.8765 76.6571 79.123C78.5286 78.2456 80.653 77.249 84.7 77.249V82.171C81.7492 82.171 80.3565 82.8225 78.745 83.5784C76.8734 84.4558 74.749 85.45 70.6996 85.45C66.6526 85.45 64.5282 84.4558 62.6542 83.5784C61.0427 82.8225 59.65 82.171 56.6992 82.171C53.746 82.171 52.3557 82.8225 50.7417 83.5784C48.8701 84.4558 46.7458 85.45 42.6988 85.45C38.6518 85.45 36.5274 84.4558 34.6558 83.5784C33.0443 82.8225 31.6516 82.171 28.6984 82.171C25.7476 82.171 24.3548 82.8225 22.7433 83.5784C20.8718 84.4558 18.7474 85.45 14.7004 85.45C10.651 85.45 8.5266 84.4558 6.65501 83.5784C5.04351 82.8225 3.65076 82.171 0.697548 82.171V77.249C4.74697 77.249 6.86891 78.2456 8.74293 79.123C10.3544 79.8765 11.7472 80.5304 14.7004 80.5304ZM9.91448 42.8435H20.5412V37.8875H9.91448V42.8435ZM28.3192 22.312H17.6901V32.9411H28.3192V22.312ZM36.0923 37.885H25.4632V44.5231L29.1359 49.7368H36.0923V37.885ZM73.8424 36.1398H59.7958V49.7392H73.8424V36.1398ZM28.6984 66.914C32.7478 66.914 34.8697 67.9081 36.7437 68.7856C38.3552 69.5415 39.748 70.1929 42.6988 70.1929C45.652 70.1929 47.0423 69.5415 48.6562 68.7856C50.5278 67.9081 52.6522 66.914 56.6992 66.914C60.7462 66.914 62.8705 67.9081 64.7446 68.7856C66.3561 69.5415 67.7488 70.1929 70.6996 70.1929C72 70.1929 72.9965 70.0665 73.84 69.8599V54.6588H26.5813L21.7273 47.7631H9.91448V54.6564C9.91448 60.1617 12.7583 66.2918 18.412 69.6995C19.2262 69.4491 19.9165 69.1259 20.653 68.7807C22.5294 67.9081 24.6514 66.914 28.6984 66.914Z" fill="black"/>
</svg>
