<svg width="86" height="86" viewBox="0 0 86 86" fill="none" xmlns="http://www.w3.org/2000/svg">
<path d="M86 20.1688V5.04375H25.2791V0.000488281H10.1539V5.04358H0V20.1687H10.1539V65.8313H0V85.9995H35.433V65.8313H25.2791V20.1688H60.7891V30.2589H40.6167V60.7842H86V30.2589H65.828V20.1688H86ZM15.1929 5.03955H20.2401V65.8313H15.1929V5.03955ZM5.03906 15.1296V10.0825H10.154V15.1296H5.03906ZM30.3939 70.8704V80.9606H5.03906V70.8704H30.3939ZM80.9609 35.2979V55.7455H45.6556V35.2979H80.9609ZM25.2791 15.1298V10.0826H80.9609V15.1298H25.2791Z" fill="black"/>
<path d="M55.7416 40.3424H50.7025V50.6992H55.7416V40.3424Z" fill="black"/>
<path d="M65.828 40.3424H60.7889V50.6992H65.828V40.3424Z" fill="black"/>
<path d="M75.9145 40.3424H70.8754V50.6992H75.9145V40.3424Z" fill="black"/>
</svg>
