<svg width="20" height="20" viewBox="0 0 20 20" fill="none" xmlns="http://www.w3.org/2000/svg">
<path d="M10 2.5C7.0975 2.5 4.75 4.8475 4.75 7.75C4.75 11.6875 10 17.5 10 17.5C10 17.5 15.25 11.6875 15.25 7.75C15.25 4.8475 12.9025 2.5 10 2.5ZM6.25 7.75C6.25 5.68 7.93 4 10 4C12.07 4 13.75 5.68 13.75 7.75C13.75 9.91 11.59 13.1425 10 15.16C8.44 13.1575 6.25 9.8875 6.25 7.75Z" fill="#07A7EB"/>
<path d="M10 9.625C11.0355 9.625 11.875 8.78553 11.875 7.75C11.875 6.71447 11.0355 5.875 10 5.875C8.96447 5.875 8.125 6.71447 8.125 7.75C8.125 8.78553 8.96447 9.625 10 9.625Z" fill="#07A7EB"/>
</svg>
