<svg width="20" height="20" viewBox="0 0 20 20" fill="none" xmlns="http://www.w3.org/2000/svg">
<path d="M10 2.5C5.86 2.5 2.5 5.86 2.5 10C2.5 14.14 5.86 17.5 10 17.5C14.14 17.5 17.5 14.14 17.5 10C17.5 5.86 14.14 2.5 10 2.5ZM6.3025 14.71C6.625 14.035 8.59 13.375 10 13.375C11.41 13.375 13.3825 14.035 13.6975 14.71C12.6775 15.52 11.395 16 10 16C8.605 16 7.3225 15.52 6.3025 14.71ZM14.77 13.6225C13.6975 12.3175 11.095 11.875 10 11.875C8.905 11.875 6.3025 12.3175 5.23 13.6225C4.465 12.6175 4 11.365 4 10C4 6.6925 6.6925 4 10 4C13.3075 4 16 6.6925 16 10C16 11.365 15.535 12.6175 14.77 13.6225ZM10 5.5C8.545 5.5 7.375 6.67 7.375 8.125C7.375 9.58 8.545 10.75 10 10.75C11.455 10.75 12.625 9.58 12.625 8.125C12.625 6.67 11.455 5.5 10 5.5ZM10 9.25C9.3775 9.25 8.875 8.7475 8.875 8.125C8.875 7.5025 9.3775 7 10 7C10.6225 7 11.125 7.5025 11.125 8.125C11.125 8.7475 10.6225 9.25 10 9.25Z" fill="#07A7EB"/>
</svg>
