<svg width="20" height="20" viewBox="0 0 20 20" fill="none" xmlns="http://www.w3.org/2000/svg">
<path d="M5.905 4.75C5.95 5.4175 6.0625 6.07 6.2425 6.6925L5.3425 7.5925C5.035 6.6925 4.84 5.74 4.7725 4.75H5.905ZM13.3 13.765C13.9375 13.945 14.59 14.0575 15.25 14.1025V15.22C14.26 15.1525 13.3075 14.9575 12.4 14.6575L13.3 13.765ZM6.625 3.25H4C3.5875 3.25 3.25 3.5875 3.25 4C3.25 11.0425 8.9575 16.75 16 16.75C16.4125 16.75 16.75 16.4125 16.75 16V13.3825C16.75 12.97 16.4125 12.6325 16 12.6325C15.07 12.6325 14.1625 12.4825 13.3225 12.205C13.2475 12.175 13.165 12.1675 13.09 12.1675C12.895 12.1675 12.7075 12.2425 12.5575 12.385L10.9075 14.035C8.785 12.9475 7.045 11.215 5.965 9.0925L7.615 7.4425C7.825 7.2325 7.885 6.94 7.8025 6.6775C7.525 5.8375 7.375 4.9375 7.375 4C7.375 3.5875 7.0375 3.25 6.625 3.25Z" fill="#07A7EB"/>
</svg>
