<svg width="86" height="86" viewBox="0 0 86 86" fill="none" xmlns="http://www.w3.org/2000/svg">
<path d="M77.2571 68.7856C76.54 69.1211 75.8667 69.437 75.0816 69.6825C78.854 65.655 81.0075 60.3198 81.0075 54.6588V32.9631H73.2319V17.3901H52.7588V32.9631H44.9832V49.7393H31.1238V36.1399H34.7332V31.2179H3.62853V36.1399H7.23801V67.879C5.76748 67.337 3.94451 66.9141 1.29999 66.9141V71.8361C4.25077 71.8361 5.64352 72.4899 7.25502 73.2434C9.1266 74.1209 11.251 75.1174 15.3004 75.1174C19.3474 75.1174 21.4718 74.1209 23.3458 73.2434C24.9573 72.4899 26.35 71.8361 29.3008 71.8361C32.254 71.8361 33.6443 72.4899 35.2583 73.2434C37.1298 74.1209 39.2542 75.1174 43.3012 75.1174C47.3482 75.1174 49.4726 74.1209 51.3442 73.2434C52.9557 72.4899 54.3484 71.8361 57.3016 71.8361C60.2524 71.8361 61.6451 72.4899 63.2566 73.2434C65.1282 74.1209 67.2526 75.1174 71.2996 75.1174C75.349 75.1174 77.4734 74.1209 79.345 73.2434C80.9565 72.4899 82.3492 71.8361 85.3024 71.8361V66.9141C81.253 66.9141 79.1311 67.9082 77.2571 68.7856ZM46.2398 9.51726L31.3863 1.45001V7.07205H1.29999V11.9625L31.3863 11.96V17.5821L46.2398 9.51726ZM16.6372 45.1916H21.5617V40.2695H16.6372V45.1916ZM65.4904 57.6582H70.4148V52.7362H65.4904V57.6582ZM71.2996 80.5304C68.3488 80.5304 66.9561 79.8766 65.3446 79.1231C63.4706 78.2456 61.3486 77.2491 57.2992 77.2491C53.2498 77.2491 51.1278 78.2456 49.2538 79.1231C47.6423 79.8766 46.2496 80.5304 43.2988 80.5304C40.3456 80.5304 38.9552 79.8766 37.3413 79.1231C35.4697 78.2456 33.3454 77.2491 29.2984 77.2491C25.2514 77.2491 23.127 78.2456 21.253 79.1231C19.6415 79.8766 18.2487 80.5304 15.298 80.5304C12.3472 80.5304 10.9544 79.8766 9.34293 79.1231C7.47135 78.2456 5.34698 77.2491 1.29999 77.2491V82.1711C4.25077 82.1711 5.64352 82.8225 7.25502 83.5784C9.1266 84.4559 11.251 85.45 15.3004 85.45C19.3474 85.45 21.4718 84.4559 23.3458 83.5784C24.9573 82.8225 26.35 82.1711 29.3008 82.1711C32.254 82.1711 33.6443 82.8225 35.2583 83.5784C37.1298 84.4559 39.2542 85.45 43.3012 85.45C47.3482 85.45 49.4726 84.4559 51.3442 83.5784C52.9557 82.8225 54.3484 82.1711 57.3016 82.1711C60.2524 82.1711 61.6451 82.8225 63.2566 83.5784C65.1282 84.4559 67.2526 85.45 71.2996 85.45C75.349 85.45 77.4734 84.4559 79.345 83.5784C80.9565 82.8225 82.3492 82.1711 85.3024 82.1711V77.2491C81.253 77.2491 79.1311 78.2456 77.2571 79.1231C75.6456 79.8766 74.2528 80.5304 71.2996 80.5304ZM76.0855 42.8436H65.4588V37.8875H76.0855V42.8436ZM57.6808 22.3121H68.3099V32.9412H57.6808V22.3121ZM49.9076 37.8851H60.5368V44.5231L56.8641 49.7368H49.9076V37.8851ZM12.1576 36.1399H26.2042V49.7393H12.1576V36.1399ZM57.3016 66.9141C53.2522 66.9141 51.1303 67.9082 49.2562 68.7856C47.6447 69.5416 46.252 70.193 43.3012 70.193C40.348 70.193 38.9577 69.5416 37.3437 68.7856C35.4722 67.9082 33.3478 66.9141 29.3008 66.9141C25.2538 66.9141 23.1294 67.9082 21.2554 68.7856C19.6439 69.5416 18.2512 70.193 15.3004 70.193C14 70.193 13.0035 70.0666 12.16 69.86V54.6588H59.4187L64.2727 47.7632H76.0855V54.6564C76.0855 60.1618 73.2417 66.2918 67.588 69.6996C66.7738 69.4492 66.0835 69.1259 65.347 68.7808C63.4706 67.9082 61.3486 66.9141 57.3016 66.9141Z" fill="black"/>
</svg>
