<svg width="86" height="86" viewBox="0 0 86 86" fill="none" xmlns="http://www.w3.org/2000/svg">
<path d="M81 0.16626H5V65.931H45.5294V85.8336L55.647 79.0885L65.7647 85.8336V65.931H81V0.16626ZM54.6682 63.3533C49.6127 62.8825 45.5294 58.58 45.5294 53.2839C45.5294 47.705 50.0682 43.1663 55.647 43.1663C61.2259 43.1663 65.7647 47.705 65.7647 53.2839C65.7647 59.2113 60.6536 63.9282 54.6682 63.3533ZM60.7059 76.3813L55.647 73.0088L50.5882 76.3813V67.5999C53.8325 68.7469 57.4697 68.744 60.7059 67.5999V76.3813ZM75.9412 60.8721H68.7862C70.0812 58.6385 70.8235 56.0464 70.8235 53.2839C70.8235 44.9156 64.0154 38.1074 55.647 38.1074C47.2787 38.1074 40.4706 44.9156 40.4706 53.2839C40.4706 56.0464 41.2129 58.6385 42.5079 60.8721H10.0588V5.22508H75.9412V60.8721Z" fill="black"/>
<path d="M15.1765 10.2839H70.8235V15.3428H15.1765V10.2839Z" fill="black"/>
<path d="M15.1765 20.4015H70.8235V25.4603H15.1765V20.4015Z" fill="black"/>
<path d="M15.1765 30.5192H40.4706V35.578H15.1765V30.5192Z" fill="black"/>
<path d="M15.1765 40.6368H32.8823V45.6957H15.1765V40.6368Z" fill="black"/>
<path d="M15.1765 50.7545H30.3529V55.8133H15.1765V50.7545Z" fill="black"/>
</svg>
