<svg width="84" height="84" viewBox="0 0 84 84" fill="none" xmlns="http://www.w3.org/2000/svg">
<path d="M71.3718 56.8504L51.6363 52.2521L50.8473 48.9559C54.8628 46.1252 57.6351 41.4616 58.0935 36.1004C61.8593 33.9749 62.8928 28.8865 60.5229 25.3239C64.7915 22.9983 67.2162 19.1941 66.5494 14.3938C65.8172 9.12116 61.7447 4.79583 55.0826 2.21485C47.5488 -0.704056 36.6109 -1.1086 31.348 3.26637C29.7499 4.59496 28.0168 4.94772 26.3409 5.28877C24.5579 5.65159 22.5372 6.0629 21.1236 7.73683C19.6989 9.42411 19.2769 11.8804 19.755 15.7009C20.1777 19.0785 22.4377 22.3338 24.1958 24.4146C21.092 27.768 21.6865 33.3887 25.5563 35.8855C25.9508 41.2398 28.652 45.9172 32.6033 48.8L32.1706 52.2969L12.6282 56.8504C8.11385 57.8602 4.89331 61.8746 4.89331 66.5069V84H79.1068V66.5067C79.1067 61.8809 75.8924 57.8615 71.3718 56.8504ZM24.9038 10.929C25.2084 10.5683 26.2378 10.3589 27.3276 10.1371C29.2807 9.7396 31.9557 9.19521 34.5108 7.07105C37.7978 4.33834 46.5754 4.22488 53.2952 6.82829C56.1402 7.93061 61.0088 10.4676 61.6487 15.0744C62.1241 18.4975 59.5295 20.3967 57.4294 21.3585C56.4539 19.1891 54.5717 17.4657 52.2071 16.7627L51.7672 16.6317L51.3098 16.6674C47.4699 16.9668 43.5538 15.9478 40.2369 13.5273L38.5421 12.2909L37.1546 13.0749C34.6935 14.4657 32.0251 15.8457 31.3146 16.0982C29.0643 16.4416 27.3256 17.5117 26.359 19.043C25.5182 17.7585 24.8229 16.3548 24.6643 15.0863C24.2724 11.9559 24.7486 11.1129 24.9038 10.929ZM30.4539 34.5243V32.511L28.7328 31.9613C27.805 31.6649 27.157 30.6843 27.157 29.5767C27.157 28.469 27.805 27.4883 28.7327 27.1922L30.4539 26.6425V22.0637C30.4539 21.4977 31.018 21.1329 32.1303 20.9793C32.4593 20.934 33.406 20.803 38.2203 18.1472C42.113 20.7011 46.6163 21.8745 51.1572 21.6352C52.3842 22.1603 53.2128 23.3886 53.2128 24.7439V26.7063L55.1238 27.1529C56.1198 27.3856 56.8426 28.405 56.8426 29.5769C56.8426 30.7486 56.1198 31.7682 55.1238 32.0009L53.2128 32.4473V34.5244C53.2128 41.3447 48.108 46.8932 41.8333 46.8932C35.5588 46.8932 30.4539 41.3445 30.4539 34.5243ZM46.2931 51.1829L47.0303 54.2626L41.9452 72.2418L36.8968 54.3924L37.2969 51.1597C40.2239 52.0591 43.3559 52.0689 46.2931 51.1829ZM9.84071 79.0524V66.5069C9.84071 64.17 11.4338 62.184 13.715 61.677L23.167 59.4749L20.2941 66.458L25.3537 69.2688L25.2004 74.3237L30.2602 79.0524H9.84071ZM37.506 79.0524L30.2133 72.2368L30.3899 66.4071L26.5439 64.2702L29.0838 58.0965L32.5726 57.2836L38.7292 79.0524H37.506ZM45.1604 79.0524L51.3239 57.2595L54.7943 58.068L57.346 64.2701L53.4999 66.4069L53.6765 72.2366L46.3838 79.0522H45.1604V79.0524ZM74.1591 79.0524H53.6297L58.6895 74.3237L58.5363 69.2688L63.5959 66.458L60.7115 59.4465C61.0954 59.5359 69.1076 61.4026 70.285 61.6769C72.5662 62.1838 74.1593 64.1698 74.1593 66.5067V79.0524H74.1591Z" fill="#07A7EB"/>
</svg>
