<svg width="88" height="88" viewBox="0 0 88 88" fill="none" xmlns="http://www.w3.org/2000/svg">
<g clip-path="url(#clip0)">
<path d="M87 14.6301L44 1.1925L1 14.6301V33.6897H3.52941V86.8074H84.4706V33.6897H87V14.6301ZM6.05882 18.3493L44 6.49263L81.9412 18.3493V28.6309H6.05882V18.3493ZM69.2941 81.7485H59.1765V71.6309H64.2353V51.3956C62.7195 51.3956 29.8646 51.3956 28.8235 51.3956V66.5721H23.7647V81.7485H18.7059V43.8074H69.2941V81.7485ZM49.0588 66.5721V56.4544H59.1765V66.5721H49.0588ZM44 66.5721H33.8824V56.4544H44V66.5721ZM38.9412 71.6309V81.7485H28.8235V71.6309H38.9412ZM44 71.6309H54.1176V81.7485H44V71.6309ZM79.4118 81.7485H74.3529V38.7485H13.6471V81.7485H8.58824V33.6897H79.4118V81.7485Z" fill="black"/>
<path d="M33.8824 16.4897H54.1177V21.5486H33.8824V16.4897Z" fill="black"/>
</g>
<defs>
<clipPath id="clip0">
<rect width="86" height="86" fill="white" transform="translate(1 1)"/>
</clipPath>
</defs>
</svg>
