<svg width="86" height="86" viewBox="0 0 86 86" fill="none" xmlns="http://www.w3.org/2000/svg">
<g clip-path="url(#clip0)">
<path d="M86 13.6301L43 0.192505L0 13.6301V32.6897H2.52941V85.8074H83.4706V32.6897H86V13.6301ZM5.05882 17.3493L43 5.49263L80.9412 17.3493V27.6309H5.05882V17.3493ZM68.2941 80.7485H58.1765V70.6309H63.2353V50.3956C61.7195 50.3956 28.8646 50.3956 27.8235 50.3956V65.5721H22.7647V80.7485H17.7059V42.8074H68.2941V80.7485ZM48.0588 65.5721V55.4544H58.1765V65.5721H48.0588ZM43 65.5721H32.8824V55.4544H43V65.5721ZM37.9412 70.6309V80.7485H27.8235V70.6309H37.9412ZM43 70.6309H53.1176V80.7485H43V70.6309ZM78.4118 80.7485H73.3529V37.7485H12.6471V80.7485H7.58824V32.6897H78.4118V80.7485Z" fill="#07A7EB"/>
<path d="M32.8824 15.4897H53.1177V20.5486H32.8824V15.4897Z" fill="#07A7EB"/>
</g>
<defs>
<clipPath id="clip0">
<rect width="86" height="86" fill="white"/>
</clipPath>
</defs>
</svg>
