<svg width="28" height="28" viewBox="0 0 28 28" fill="none" xmlns="http://www.w3.org/2000/svg">
<g clip-path="url(#clip0)">
<path d="M14.0009 27.9998C21.7328 27.9998 28.0008 21.7318 28.0008 13.9999C28.0008 6.26796 21.7328 0 14.0009 0C6.26896 0 0.00100708 6.26796 0.00100708 13.9999C0.00100708 21.7318 6.26896 27.9998 14.0009 27.9998Z" fill="#55ACEE"/>
<path d="M22.5756 10.0612C21.9756 10.3272 21.3303 10.5071 20.6535 10.5875C21.3445 10.1735 21.8748 9.51839 22.1251 8.73651C21.4785 9.12009 20.762 9.39835 20.0001 9.54834C19.3897 8.89823 18.52 8.49194 17.5569 8.49194C15.7092 8.49194 14.2105 9.99056 14.2105 11.8383C14.2105 12.1006 14.2402 12.3559 14.2976 12.601C11.5165 12.4615 9.05062 11.1293 7.40002 9.10412C7.11203 9.59825 6.94682 10.1735 6.94682 10.7867C6.94682 11.9474 7.53803 12.9721 8.43545 13.572C7.88717 13.5548 7.37082 13.4043 6.91987 13.153C6.91962 13.1672 6.91962 13.1814 6.91962 13.1954C6.91962 14.8168 8.07359 16.1692 9.60415 16.4764C9.32364 16.5533 9.02741 16.5939 8.7227 16.5939C8.50658 16.5939 8.2972 16.5732 8.09305 16.5343C8.51881 17.8635 9.75438 18.831 11.2191 18.8582C10.0736 19.7559 8.63086 20.2907 7.06262 20.2907C6.79309 20.2907 6.52606 20.275 6.26477 20.2438C7.74492 21.1936 9.50432 21.7474 11.394 21.7474C17.5492 21.7474 20.9152 16.6483 20.9152 12.2259C20.9152 12.0809 20.912 11.9364 20.9055 11.7931C21.5599 11.3215 22.1271 10.7323 22.5756 10.0612Z" fill="#F1F2F2"/>
</g>
<defs>
<clipPath id="clip0">
<rect width="28" height="28" fill="white"/>
</clipPath>
</defs>
</svg>
