<svg width="28" height="28" viewBox="0 0 28 28" fill="none" xmlns="http://www.w3.org/2000/svg">
<g clip-path="url(#clip0)">
<path d="M27.4231 7.27855C27.1003 6.07906 26.1546 5.13357 24.9553 4.81057C22.7642 4.21094 13.9997 4.21094 13.9997 4.21094C13.9997 4.21094 5.23545 4.21094 3.04433 4.78772C1.86813 5.1105 0.899349 6.07928 0.576566 7.27855C0 9.46946 0 14.0132 0 14.0132C0 14.0132 0 18.5798 0.576566 20.7479C0.899563 21.9471 1.84505 22.8928 3.04454 23.2158C5.25852 23.8155 13.9999 23.8155 13.9999 23.8155C13.9999 23.8155 22.7642 23.8155 24.9553 23.2387C26.1548 22.9159 27.1003 21.9702 27.4233 20.7709C27.9999 18.5798 27.9999 14.0363 27.9999 14.0363C27.9999 14.0363 28.023 9.46946 27.4231 7.27855Z" fill="#FF0000"/>
<path d="M11.2092 18.2111L18.4973 14.0134L11.2092 9.81567V18.2111Z" fill="white"/>
</g>
<defs>
<clipPath id="clip0">
<rect width="28" height="28" fill="white"/>
</clipPath>
</defs>
</svg>
